<?xml version="1.0" encoding="utf-8"?>
<!-- Generator: Adobe Illustrator 25.2.1, SVG Export Plug-In . SVG Version: 6.00 Build 0)  -->
<svg version="1.1" id="Layer_1" xmlns="http://www.w3.org/2000/svg" xmlns:xlink="http://www.w3.org/1999/xlink" x="0px" y="0px"
	 viewBox="0 0 693 449" style="enable-background:new 0 0 693 449;" xml:space="preserve">
<style type="text/css">
	.st0{fill:#C4D8F0;}
	.st1{fill:#1E3966;}
	.st2{fill:#D2DEF2;}
	.st3{fill:#B0C0E3;}
	.st4{fill:#BCCEEA;}
	.st5{fill:#DEEBF8;}
	.st6{fill:#8D98CC;}
	.st7{clip-path:url(#SVGID_2_);}
	.st8{fill:#8FACD9;}
	.st9{clip-path:url(#SVGID_4_);}
	.st10{fill:#7181BF;}
	.st11{fill:#4252A3;}
	.st12{fill:#234674;}
	.st13{fill:#505CA9;}
	.st14{fill:#F3753E;}
	.st15{fill:#142E51;}
	.st16{fill:#565FAB;}
	.st17{fill:#FAAB77;}
	.st18{fill:#254790;}
	.st19{fill:#DB5626;}
	.st20{fill:#E65825;}
	.st21{fill:#F47820;}
	.st22{fill:#F79134;}
	.st23{fill:#F79454;}
	.st24{fill:#234F9D;}
	.st25{fill:#FBAB45;}
	.st26{fill:#1A3763;}
	.st27{fill:#E25626;}
	.st28{fill:#F5904E;}
	.st29{opacity:0.5;}
	.st30{fill:#F7902E;}
	.st31{fill:#FFFFFF;}
	.st32{fill:#5C6CB3;}
	.st33{fill:#F0F5FC;}
</style>
<rect x="-1" class="st0" width="694" height="447.8"/>
<g>
	<g>
		<path class="st1" d="M659.9,405.7v0.4c0,0.4-0.3,0.7-0.7,0.7H117.1c-0.3,0-0.5-0.2-0.6-0.4c0-0.1-0.1-0.2-0.1-0.3v-0.4
			c0-0.4,0.3-0.7,0.7-0.7h542.2C659.6,405.1,659.9,405.4,659.9,405.7z"/>
	</g>
	<g>
		<g>
			<path class="st2" d="M687.7,378.6c-3,39-22.3,64-26.5,69.3c-0.5,0.6-0.8,1-0.8,1c-13.8,0-91.4,0-187.7,0
				c-58.4,0-123.7,0-185.8-0.1c-136.3-0.1-257.4-0.3-257.5-0.8l-0.1-0.1l0,0c0,0-0.1-0.1-0.1-0.2c-0.1-0.2-13.1-21.4-21.7-53.2
				c-3.5-12.9-6.2-27.5-7-43.2c-2.5-47.9,12.8-105.5,78.8-153.4c55.2-40-3.4-66.4,40.4-111c50.4-51.2,105.4,5.4,161.5-17.8
				c9.9-4.1,19.9-10.7,29.8-20.8c5.6-5.7,11.7-10.7,18.3-15c20.4-13.4,44.7-20,69.1-21.8C461.2,6.9,531.7,33,568.1,71.1
				c7.3,7.7,40.6,47.4,14.4,102c-6.5,13.5,0.2,26.8,12.2,40.2c18.7,21,50.3,42.6,65.3,66.5c10.5,16.7,17.5,32.5,21.9,47.3
				c2.2,7.5,3.8,14.8,4.8,21.8C688.2,359.5,688.4,369.5,687.7,378.6z"/>
		</g>
		<g>
			<path class="st3" d="M371.8,68c0,0,7.7-16.5,26.2-14.7c0,0,26.8-27.5,55.4-3.7c0,0,30.4-5.9,52.9,5.1c15,7.4,20,15.1,20,15.1
				L371.8,68z"/>
		</g>
		<g>
			<g>
				<path class="st4" d="M385.6,283.9h-9.8v-23c-0.1-0.1-0.3-0.2-0.5-0.3h-2.9v0h-17v0h0v3.5h0v2.4h0v3.5h0v2.4h0v3.5h0v0l-1.8,0
					v-18.1h-19v2.3h0v3.5h0v3h0v3.5h0v2.4h0v3.5h0v2.2h0v3.5h0v2.2h0v3.5h0v2.1h0v2.2h0v0.2h-21.5v19.8h-8v5h-8.6v-8.6H281v-23.3
					h-2.4v-2.3h-0.4v2.3h-2l0,0h-10.1v-2.3h-0.4v2.3h-2.6v11.7l-13.1-0.1v7.2H239v-44.7h-32.8v47.9h-10v-25.9h-32.8v167.6l224.2-0.9
					L385.6,283.9z"/>
			</g>
			<g>
				<polygon class="st4" points="163.4,311.1 163.4,326.8 163.4,350.1 163.4,447 146.9,447 146.9,350.1 146.9,326.8 146.9,311.1 
									"/>
			</g>
			<g>
				<rect x="214.6" y="258.6" class="st0" width="24.4" height="7.6"/>
			</g>
			<g>
				<rect x="214.6" y="270.2" class="st0" width="24.4" height="7.6"/>
			</g>
			<g>
				<rect x="214.6" y="282.1" class="st0" width="24.4" height="7.6"/>
			</g>
			<g>
				<rect x="214.6" y="294.2" class="st0" width="24.4" height="7.6"/>
			</g>
			<g>
				<rect x="214.6" y="305.9" class="st0" width="24.4" height="7.6"/>
			</g>
			<g>
				<g>
					<rect x="334.7" y="257.6" class="st0" width="12.2" height="4.6"/>
				</g>
				<g>
					<rect x="334.7" y="264.7" class="st0" width="12.2" height="4.6"/>
				</g>
				<g>
					<rect x="334.7" y="271.9" class="st0" width="12.2" height="4.6"/>
				</g>
				<g>
					<rect x="334.7" y="279.3" class="st0" width="12.2" height="4.6"/>
				</g>
				<g>
					<rect x="334.7" y="286.4" class="st0" width="12.2" height="4.6"/>
				</g>
			</g>
			<g>
				<g>
					<rect x="334.7" y="294.2" class="st0" width="12.2" height="4.6"/>
				</g>
				<g>
					<rect x="334.7" y="301.3" class="st0" width="12.2" height="4.6"/>
				</g>
				<g>
					<rect x="334.7" y="308.5" class="st0" width="12.2" height="4.6"/>
				</g>
				<g>
					<rect x="334.7" y="315.8" class="st0" width="12.2" height="4.6"/>
				</g>
				<g>
					<rect x="334.7" y="322.9" class="st0" width="12.2" height="4.6"/>
				</g>
			</g>
			<g>
				<g>
					<rect x="355.5" y="260.6" class="st0" width="12.2" height="4.6"/>
				</g>
				<g>
					<rect x="355.5" y="267.7" class="st0" width="12.2" height="4.6"/>
				</g>
				<g>
					<rect x="355.5" y="275" class="st0" width="12.2" height="4.6"/>
				</g>
				<g>
					<rect x="355.5" y="282.3" class="st0" width="12.2" height="4.6"/>
				</g>
				<g>
					<rect x="355.5" y="289.4" class="st0" width="12.2" height="4.6"/>
				</g>
			</g>
			<g>
				<g>
					<rect x="355.5" y="296.8" class="st0" width="12.2" height="4.6"/>
				</g>
				<g>
					<rect x="355.5" y="303.9" class="st0" width="12.2" height="4.6"/>
				</g>
				<g>
					<rect x="355.5" y="311.1" class="st0" width="12.2" height="4.6"/>
				</g>
				<g>
					<rect x="355.5" y="318.5" class="st0" width="12.2" height="4.6"/>
				</g>
				<g>
					<rect x="355.5" y="325.5" class="st0" width="12.2" height="4.6"/>
				</g>
			</g>
			<g>
				<rect x="317.2" y="282.3" class="st4" width="0.6" height="9.4"/>
			</g>
			<g>
				<rect x="327.4" y="274.2" class="st4" width="0.9" height="18.2"/>
			</g>
			<g>
				<rect x="208.4" y="255.2" class="st5" width="0.4" height="3.3"/>
			</g>
			<g>
				<rect x="216.7" y="255.2" class="st5" width="0.4" height="3.3"/>
			</g>
			<g>
				<rect x="235.7" y="255.2" class="st5" width="0.4" height="3.3"/>
			</g>
			<g>
				<rect x="336.6" y="255" class="st5" width="0.3" height="2.6"/>
			</g>
			<g>
				<rect x="350.9" y="255" class="st5" width="0.3" height="2.6"/>
			</g>
			<g>
				<rect x="228.3" y="255.2" class="st5" width="0.4" height="3.3"/>
			</g>
			<g>
				<path class="st4" d="M624.9,283.6h-12.6v-23c-0.2-0.1-0.3-0.2-0.5-0.3h-3.1v0h-18.2v0h0v3.5h0v2.4h0v3.5h0v2.4h0v3.5h0v0l-1.9,0
					v-18.1H568v2.3h0v3.5h0v3h0v3.5h0v2.4h0v3.5h0v2.2h0v3.5h0v2.2h0v3.5h0v2.1h0v2.2h0v0.2h-23.1V311h-8.6v5H527v-8.6h-16.7v-23.3
					h-2.6v-2.3h-0.4v2.3h-2.2l0,0h-10.9v-2.3h-0.4v2.3H491v11.7l-14-0.1v7.2h-11.9v-44.7h-35.3v47.9H419v-25.9h-35.3v167.6
					l241.2-0.9L624.9,283.6L624.9,283.6z"/>
			</g>
			<g>
				<polygon class="st4" points="388.1,310.8 388.1,326.5 388.1,349.9 388.1,446.7 370.7,446.7 370.7,349.9 370.7,326.5 
					370.7,310.8 				"/>
			</g>
			<g>
				<rect x="442.2" y="258.3" class="st0" width="22.8" height="7.6"/>
			</g>
			<g>
				<rect x="442.2" y="270" class="st0" width="22.8" height="7.6"/>
			</g>
			<g>
				<rect x="442.2" y="281.9" class="st0" width="22.8" height="7.6"/>
			</g>
			<g>
				<rect x="442.2" y="294" class="st0" width="22.8" height="7.6"/>
			</g>
			<g>
				<rect x="442.2" y="305.7" class="st0" width="22.8" height="7.6"/>
			</g>
			<g>
				<rect x="550.5" y="282.1" class="st4" width="0.6" height="9.4"/>
			</g>
			<g>
				<rect x="561.3" y="274" class="st4" width="1" height="18.2"/>
			</g>
			<g>
				<rect x="435.6" y="255" class="st4" width="0.4" height="3.3"/>
			</g>
			<g>
				<rect x="444.4" y="255" class="st4" width="0.4" height="3.3"/>
			</g>
			<g>
				<rect x="464.5" y="255" class="st4" width="0.4" height="3.3"/>
			</g>
			<g>
				<rect x="571" y="254.8" class="st5" width="0.3" height="2.6"/>
			</g>
			<g>
				<rect x="586.1" y="254.8" class="st5" width="0.3" height="2.6"/>
			</g>
			<g>
				<rect x="456.6" y="255" class="st4" width="0.4" height="3.3"/>
			</g>
		</g>
		<g>
			<path class="st6" d="M307.3,82.3c0,0,9.7-20,32.9-17.8c0,0,33.7-33.4,69.6-4.5c0,0,38.2-7.2,66.4,6.2
				c18.8,8.9,25.1,18.3,25.1,18.3L307.3,82.3z"/>
		</g>
		<g>
			<path class="st3" d="M401.5,203.5c0,0,5.5-12.4,18.8-11c0,0,19.3-20.7,39.8-2.8c0,0,21.8-4.4,38,3.8
				c10.8,5.5,14.3,11.3,14.3,11.3L401.5,203.5z"/>
		</g>
		<g>
			<path class="st3" d="M687.7,378.6c-3,39-22.3,64-26.5,69.3c-0.5,0.6-0.8,1-0.8,1c-13.8,0-91.4,0-187.7,0
				c-58.4,0-123.7,0-185.8-0.1c-136.3-0.1-257.4-0.3-257.5-0.8l-0.1-0.1l0,0c0,0-0.1-0.1-0.1-0.2c-0.1-0.2-13.1-21.4-21.7-53.2
				c3.1-18.7,13-35.9,38.2-39.4c59.6-8.2,39.6,21.6,70.2,17.1c30.6-4.5,74.3,27.1,100.8,44.8c26.5,17.7,46.1,0.6,92.7-17.2
				s129.8,22,155.2-3.4c25.4-25.4,80.8,4.7,97.6-29.6s85.2-33.4,85.2-33.4l34.3-6.3c2.2,7.5,3.8,14.8,4.8,21.8
				C688.2,359.5,688.4,369.5,687.7,378.6z"/>
		</g>
		<g>
			<g>
				<defs>
					<path id="SVGID_1_" d="M660.4,448.9c-40.5,0-630.7,0.1-631-0.9l-0.1-0.1c0,0-0.1-0.1-0.1-0.2c-0.2-0.5-90.9-147.5,50.1-249.8
						c55.2-40-3.4-66.4,40.4-111c50.4-51.2,105.4,5.4,161.5-17.8c9.9-4.1,19.9-10.7,29.8-20.8c5.6-5.7,11.7-10.7,18.3-15
						c20.4-13.4,44.7-20,69.1-21.8C461.2,6.9,531.7,33,568,71.1c7.3,7.7,40.6,47.4,14.4,102c-16.6,34.5,52.9,67.4,77.5,106.8
						C722.7,380,661,447.6,660.4,448.9z"/>
				</defs>
				<clipPath id="SVGID_2_">
					<use xlink:href="#SVGID_1_"  style="overflow:visible;"/>
				</clipPath>
				<g class="st7">
					<g>
						<g>
							<path class="st8" d="M97.2,173.3c2.8-4.4,3-10.4,2.2-17.4c-0.6-5.3-2.4-8.8-2.5-9l-1.1,0.4c0.1,0.1,5.4,15.3-0.6,24.7
								L97.2,173.3z"/>
						</g>
					</g>
					<g>
						<g>
							<path class="st8" d="M99,159.1l0.2-2.5c-6.6-0.5-12.8-2.9-16.4-8c-2.7-3.8-3.9-7.6-3.9-7.7l-1.1,0.2c0,0.2,0.9,4.2,3.9,8.5
								C84.5,153.5,89.8,158.4,99,159.1z"/>
						</g>
					</g>
					<g>
						<g>
							<path class="st8" d="M140.3,163.7c5.1-4.2,7.8-11.4,9.6-20.4c1.4-6.7,0.6-11.7,0.6-12l-1.5,0c0,0.2,0.4,20.7-10.7,29.8
								L140.3,163.7z"/>
						</g>
					</g>
					<g>
						<g>
							<path class="st8" d="M144.9,160.1l-0.8-3.1c8.3-2.1,15.5-6.4,19-13.6c2.6-5.4,3.3-10.5,3.3-10.5l1.4,0.1
								c0,0.2-0.2,5.5-3.1,11.5C162.1,149.9,156.4,157.2,144.9,160.1z"/>
						</g>
					</g>
					<g>
						<path class="st3" d="M49.8,185.2c-0.4-0.1-27.9,9.2-27.9,23.4c0,14.3,25.7,20,39.1,16.4c13.4-3.6,32.7-1.8,42.6,4.9
							s24.2-15.6,53.1-9.5s41.3,0.3,58.1-8.9c16.8-9.2,27.6,7.2,42.5,4.1c14.8-3.1,22.9-25.8,2.1-33.2s-101.1-16.1-115.9-14.7
							C128.6,169.1,49.8,185.2,49.8,185.2z"/>
					</g>
					<g>
						<g>
							<path class="st8" d="M46.6,447.6c0,0,21.4-42.2,34-77.6c14-39,20.9-81.3,32.5-105.4c13.6-28.4,21.3-76.6,27.9-107.7
								c0,0-7.3,84-17.1,103c-9.2,17.9-22.2,73.2-29.2,107.6s-22.6,60.8-25.2,82.4C69.7,449.9,49.4,458.4,46.6,447.6z"/>
						</g>
						<g>
							<g>
								<path class="st8" d="M132.9,210.7l0.2-3.4c0.1,0,7.9-1.2,18.2-5.7c9.5-4.2,24.1-11.6,35.6-26l1.6,1.2
									c-12.2,15.2-26.6,23.6-36.6,28C141.1,209.5,133.2,210.7,132.9,210.7z M133,209l0.1-1.7l0,0L133,209z"/>
							</g>
						</g>
						<g>
							<g>
								<path class="st8" d="M158.6,198.8c-3.1-4.5-3.1-11.3-1.8-19.7c1-6.2,3.3-10.7,3.4-10.9l1.3,0.2c-0.1,0.2-7,18.8-0.4,28.4
									L158.6,198.8z"/>
							</g>
						</g>
						<g>
							<g>
								<path class="st8" d="M172.5,192.8c-0.6-0.1-1.2-0.1-1.8-0.2l1-2.9c13,1.7,22.9-1.7,28.9-4.9c6.5-3.4,10.1-7.3,10.1-7.4
									l1,0.8c-0.2,0.2-3.2,5.1-10.4,8.9C195.1,190.4,185.4,194,172.5,192.8z"/>
							</g>
						</g>
						<g>
							<g>
								<path class="st8" d="M120.8,224.3c-34.7-3.4-56.5-39.6-65.6-52.7c-1.6-2.3-3.2-4.5-3.6-4.9c0,0,0.1,0.1,0.4,0.1l0.9-2.9
									c1,0.1,1.6,1,4.9,5.7c9.2,13.3,36.4,48.6,71.9,49.8l-2.2,5.8C126.2,225.1,121.9,224.4,120.8,224.3z"/>
							</g>
						</g>
						<g>
							<g>
								<path class="st8" d="M56.9,203.6c-8.7-0.9-15-3.7-19.6-5.9c-9-4.2-11.4-10.3-11.6-10.5l1.1-0.9c0,0.1,3.7,4.9,12.3,8.8
									c7.9,3.6,21.8,7.3,42.7,3.9l2,4.4C74.3,204.9,63.7,204.3,56.9,203.6z"/>
							</g>
						</g>
						<g>
							<g>
								<path class="st8" d="M94.7,208l-2.2-1.5c14.2-18.3,10.3-38.9,10.2-39.1l1.3-0.6c0.1,0.2,1.5,5.4,1.1,13.1
									C104.8,187.1,102.7,197.7,94.7,208z"/>
							</g>
						</g>
						<g>
							<g>
								<path class="st8" d="M102.1,185.9c-7.4-0.7-10.8-9.5-13-13.9c-0.5-1.1-1.1-3.2-1.6-2.8c0,0-0.4-0.8-0.2-0.8l0.8,0.3
									c0.6,0.9,1.4,0.7,2.6,3.2c2.1,4.2,6.5,11,13,11.1l-0.7,3C102.7,185.9,102.3,185.9,102.1,185.9z"/>
							</g>
						</g>
						<g>
							<g>
								<path class="st8" d="M136.5,187.8c-10.9-2.8-15.6-8.9-17.6-13.6c-2.2-5.1-1.9-9.6-1.8-9.8l3-0.4c0,0-0.3,4.1,1.7,8.6
									c2.7,6.1,8.1,10.2,16.1,12.3L136.5,187.8z"/>
							</g>
						</g>
						<g>
							<g>
								<path class="st8" d="M157.1,182.8l-0.1-2.9c7.8-2,15.1-6,19.6-12.6c3.4-5,4.9-9.6,4.9-9.7l1.3,0c-0.1,0.2-1.2,5.1-5,10.6
									C174.4,173.3,168,180,157.1,182.8z"/>
							</g>
						</g>
					</g>
					<g>
						<path class="st4" d="M-15.9,197.1c0,0,9.9,7.7,23.8,5.4s24-7,37.1-2.3s42.8,7.4,65.8-1.9c22.9-9.3,46.3-16.9,71.6-8.8
							c25.3,8.1,38.9,13.7,57.6,7.6s29.2,13.2,50.7,3.1c21.4-10,7.3-25.2-9.3-28.3s-42.3-23.4-72.3-18.7c-30,4.7-57.3-8.1-85.9-1.9
							c-28.6,6.2-43.7,15.6-72.7,13.2C21.4,162.1-37.8,179.8-15.9,197.1z"/>
					</g>
					<g>
						<path class="st4" d="M96.7,152.4c0,0-17.7,1.8-27.7,5.4c-10,3.6-33,1.4-24.3-9.8c8.7-11.2,15.2-18.5,34.8-16.3
							s39.1,4.4,44.6,9.4C129.6,146.3,104.3,153.5,96.7,152.4z"/>
					</g>
					<g>
						<path class="st4" d="M139.7,136.3c7.4-1.7,19.9,5.3,32.2,11.2s37.8,1.8,27.5-15.4s-18-28.2-42.5-25.9s-49.1,4.6-56.2,11.9
							C93.6,125.3,119.6,140.9,139.7,136.3z"/>
					</g>
				</g>
			</g>
			<g>
				<defs>
					<path id="SVGID_3_" d="M660.4,448.9c-40.5,0-630.7,0.1-631-0.9l-0.1-0.1c0,0-0.1-0.1-0.1-0.2c-0.2-0.5-90.9-147.5,50.1-249.8
						c55.2-40-3.4-66.4,40.4-111c50.4-51.2,105.4,5.4,161.5-17.8c9.9-4.1,19.9-10.7,29.8-20.8c5.6-5.7,11.7-10.7,18.3-15
						c20.4-13.4,44.7-20,69.1-21.8C461.2,6.9,531.7,33,568,71.1c7.3,7.7,40.6,47.4,14.4,102c-16.6,34.5,52.9,67.4,77.5,106.8
						C722.7,380,661,447.6,660.4,448.9z"/>
				</defs>
				<clipPath id="SVGID_4_">
					<use xlink:href="#SVGID_3_"  style="overflow:visible;"/>
				</clipPath>
				<g class="st9">
					<g>
						<path class="st3" d="M-35.3,265.4c-0.3,0-21.4,7-21.4,17.9c0,10.9,19.7,15.3,30,12.5c10.3-2.8,25.1-1.4,32.6,3.7
							s18.6-11.9,40.7-7.2s31.7,0.2,44.5-6.8c12.8-7,21.2,5.5,32.6,3.1s17.6-19.7,1.6-25.3s-77.5-12.3-88.8-11.2
							C25.2,253.1-35.3,265.4-35.3,265.4z"/>
					</g>
					<g>
						<path class="st4" d="M-85.7,274.5c0,0,7.6,5.9,18.3,4.2s18.4-5.3,28.5-1.8s32.8,5.7,50.4-1.4s35.5-12.9,54.9-6.7
							c19.4,6.2,29.8,10.5,44.1,5.8s22.4,10,38.8,2.4c16.4-7.6,5.6-19.2-7.1-21.6s-32.4-17.8-55.4-14.3c-23,3.6-43.9-6.2-65.9-1.5
							c-22,4.7-33.5,11.9-55.8,10.1C-57,247.8-102.4,261.3-85.7,274.5z"/>
					</g>
				</g>
			</g>
		</g>
		<g>
			<path class="st10" d="M287.1,449.4H11.2c0-0.1-0.1-0.2-0.1-0.3v-0.4c0-0.5,0.4-0.8,0.8-0.8h17.4l0,0c0,0-0.1-0.1-0.1-0.2
				c-0.1-0.3-25.9-42-28.7-96.4c12.3-1.9,37.6-3.4,64.1,9.7c37.2,18.3,26,46,47.8,49c21.8,3,57.8-13,86.7,9.4
				c28.3,22,94.7,3.4,104.4,28.8c0.1,0.3-16.8,0.4-16.7,0.7C287,449,287,449.2,287.1,449.4z"/>
		</g>
		<g>
			<path class="st6" d="M687.7,378.6c-3,39-22.3,64-26.5,69.3c-0.5,0.6-0.8,1-0.8,1c-13.8,0-91.4,0-187.7,0l0.2-1
				c0,0,24.2-23.2,53.1-18.5c28.9,4.7,47,11.2,60.1,2.4s29-22.4,49.6-13C653.3,426.8,663.2,381.2,687.7,378.6z"/>
		</g>
		<g>
			<path class="st10" d="M686.7,348.9c-18.3,6-30.1-12-44.9-6.1c-16.8,6.6-55.8,13.7-72.8-22.6s34.9-59.8,32.1-65.4
				c-2.8-5.6-18.1-8.4-15-24.9c1.4-7.2,5-12.7,8.6-16.6c18.7,21,50.3,42.6,65.3,66.5C675.8,305.1,683.7,328.4,686.7,348.9z"/>
		</g>
		<g>
			<g>
				<path class="st11" d="M495.3,412.7c0,0,9.9,16.1,21,20.6c0,0,7.4-2,8,0.7c0.7,2.7-3.5,6-8.6,5.2s-27-11.6-27.7-13.1
					C487.3,424.5,495.3,412.7,495.3,412.7z"/>
			</g>
			<g>
				<path class="st11" d="M448.6,419.8c0,0-16.9,6.5-33.1-3.1c0,0-2.2-2.2-4-1.9c-1.8,0.3-10.2,4.1-12.4,0.8
					c-2.2-3.3,2.9-5.5,5.3-5.8s7.9-3.9,9-3.7c1.2,0.2,9.4,0.2,12-3.5c2.6-3.7,10.9-9.3,19.3-2.5
					C453.2,406.9,448.6,419.8,448.6,419.8z"/>
			</g>
			<g>
				<path class="st12" d="M504.4,385.2c0,0-17.4,12.8-28,6.7c-10.5-6.1,2.6-12.9,8.7-12.8C491.2,379.3,508.1,378.1,504.4,385.2z"/>
			</g>
			<g>
				<path class="st13" d="M510.3,403.3c0,0-7,2.2-10.2,7.6c-2.7,4.5-4.6,14.2-11.1,17.4c-6.5,3.3-26.2-7.2-34.4-6.4
					c-8.1,0.8-32.3-6.7-30.2-14.9c2.4-9.5,9.4-19.8,29-13.9c16.1,4.8,50.3-2.5,50.3-2.5L510.3,403.3z"/>
			</g>
			<g>
				<path class="st13" d="M502.5,379.3c0,0,7.2,1.1,9.9,5.3c2.7,4.2,12.3,2.8,12.8,6.8c0.5,4-1.9,11.5-11.8,12
					c-9.9,0.5-16.9-0.5-19.2-5.6C492,392.8,496.6,377.4,502.5,379.3z"/>
			</g>
			<g>
				<path class="st13" d="M499.4,445.7c-0.2,1.9-2.6,2.4-5.2,2.3c-2.1-0.1-4.4-0.6-5.5-1c-2.6-1-17.7-24.4-17.7-24.4l12.9-11
					c0,0,8,27.3,9.6,29.2c0.4,0.5,1.1,0.9,1.8,1.1h0C497.2,442.6,499.6,443.1,499.4,445.7z"/>
			</g>
			<g>
				<path class="st13" d="M451.5,415c0,0-11.1,14.4-29.9,14.6c0,0-3-0.7-4.4,0.4c-1.4,1.1-6.6,8.8-10.2,7.1
					c-3.6-1.7-0.4-6.2,1.5-7.7c2-1.5,4.7-7.4,5.8-7.9s8.1-4.7,8.4-9.2c0.3-4.5,4.5-13.6,15.2-12.1C448.8,401.6,451.5,415,451.5,415z
					"/>
			</g>
			<g>
				<path class="st13" d="M445.3,391.4c0,0-20-1.4-25.6-7.1c-6.8-7.1-1.6-13.5-1.6-13.5s-5.9,0.4-8.6,6.3c-3.3,7,2.7,24.4,20.5,22.5
					L445.3,391.4z"/>
			</g>
			<g>
				<path class="st14" d="M501.6,408.9c0,0-9.8-4-15.3-16c0,0-4.4-0.1-5.1,1.1c0,0,6.1,14.2,17.9,18.7
					C499.2,412.7,502.6,412.4,501.6,408.9z"/>
			</g>
			<g>
				<path class="st15" d="M502.8,386.6c0,0-8.3,20-20.5,20.2s-4.5-12.4,0.8-15.5C488.5,388.3,502.3,378.6,502.8,386.6z"/>
			</g>
		</g>
		<g>
			<path class="st16" d="M58.1,448.1h26.3c1.4-1.2-1-3.9-3.5-4.1c-1.1-0.1-2.4,0.1-4,0.5c-0.4-4.8-2.4-26.4-10.2-25.6
				c-8.8,1,0,9.5,2.5,14.6c1.8,3.8,3.8,9.1,4.7,11.7c-0.7,0.1-1.4,0.3-2.2,0.4c-1.2-3.6-5.5-15.6-11-14.9c-6.5,0.8-3.9,5.6,0.7,8.5
				c3.4,2.1,7.5,5.1,9.4,6.5c-1.7,0.3-3.4,0.5-5.2,0.4C61.2,446.1,59,447.4,58.1,448.1z"/>
		</g>
		<g>
			<path class="st16" d="M620.4,448.3H598c-1.2-1,0.8-3.3,3-3.5c0.9-0.1,2.1,0.1,3.4,0.4c0.3-4.1,2.1-22.6,8.7-21.8
				c7.5,0.8,0,8.1-2.1,12.5c-1.6,3.2-3.2,7.8-4,10c0.6,0.1,1.2,0.3,1.9,0.4c1-3,4.7-13.3,9.4-12.7c5.5,0.7,3.3,4.8-0.6,7.2
				c-2.9,1.8-6.4,4.3-8.1,5.6c1.4,0.2,2.9,0.4,4.4,0.4C617.8,446.6,619.7,447.7,620.4,448.3z"/>
		</g>
		<g>
			<g>
				<path class="st17" d="M379.4,262.1c0,0,5.2-4.9,7.2-4.5s1.9,5.9,0,8.3s-6.5,1.1-6.5,1.1L379.4,262.1z"/>
			</g>
			<g>
				<g>
					<path class="st18" d="M341.9,104.3L341.9,104.3c0.9-0.2,1.5-1.2,1.2-2.2l-3.7-13.9c-0.2-0.9-1.2-1.5-2.1-1.2l0,0
						c-0.9,0.2-1.5,1.2-1.2,2.2l3.7,13.9C340,104,341,104.5,341.9,104.3z"/>
				</g>
				<g>
					<path class="st19" d="M349.5,128.9c0,0,79.7-33.4,148.3,10c0,0-47,9.8-66.8,31.7C431.1,170.7,390.5,133.4,349.5,128.9z"/>
				</g>
				<g>
					<path class="st20" d="M431.1,170.7c0,0-58.6,9-64.5,23.7l-17.1-65.4C349.5,128.9,405.5,135.3,431.1,170.7z"/>
				</g>
				<g>
					<path class="st19" d="M349.3,129c0,0-85.8,10.6-123.8,82.3c0,0,45.7-14.8,73.7-5.6C299.1,205.7,315.9,153.2,349.3,129z"/>
				</g>
				<g>
					<path class="st20" d="M299.1,205.7c0,0,55.4-21.2,67.7-11.4L349.3,129C349.3,129,303.8,162.2,299.1,205.7z"/>
				</g>
				<g>
					<path class="st18" d="M386.1,272.8l1-0.3c0.5-0.1,0.9-0.7,0.7-1.2l-37.6-141.5c-0.1-0.5-0.7-0.9-1.2-0.7l-1,0.3
						c-0.5,0.1-0.9,0.7-0.7,1.2l37.6,141.5C385,272.6,385.6,273,386.1,272.8z"/>
				</g>
				<g>
					<path class="st21" d="M497.8,139c-0.3-0.1-34.8-19.6-67.6-10.6l0,0c-0.1-0.2-2.8-4.4-8.3-9.9c-7.4-7.3-19.8-16.7-37.6-21.3
						c-10.6-2.8-23.2-3.8-37.7-1.7c23.5-4.8,44.3-4.9,62.4-2.3h0c15.1,2.2,28.4,6.2,39.7,11.1l0,0
						C481.1,118.3,497.6,138.7,497.8,139z"/>
				</g>
				<g>
					<path class="st21" d="M332.5,99.5c-11.6,4.6-20.6,10.3-27.8,16.6c-12.2,10.7-18.6,22.8-22,32.6c-3.9,11.2-3.8,19.6-3.8,19.9v0
						c-33,8.4-53.3,42.4-53.4,42.7c0,0,0,0,0-0.1c0-0.3,0.2-1.6,0.7-3.7c0,0,0,0,0,0c1.3-6.2,4.9-19.5,13.6-35.1
						c5.7-10.2,13.6-21.4,24.5-32.2C279.9,124.5,301.9,109.6,332.5,99.5z"/>
				</g>
				<g>
					<path class="st22" d="M430.3,128.4c0,0-80.7-15.6-151.4,40.2c0,0-1.2-12.8,5.4-28c6.9-15.9,22.4-34.3,56.8-43.7
						c0,0,40.7-12.1,69,8.9c0,0,1.2,0.8,3,2.2C417.9,111.9,427.4,120.2,430.3,128.4z"/>
				</g>
				<g>
					<path class="st14" d="M393.2,278c-1.7,0-3.4-0.4-4.9-1.3c-2.3-1.3-4-3.5-4.7-6l-5.2-18.7c-0.4-1.3,0.4-2.7,1.8-3.1
						c1.3-0.4,2.7,0.4,3.1,1.8l5.2,18.7c0.4,1.3,1.2,2.4,2.4,3c1.2,0.6,2.5,0.8,3.8,0.5c1.3-0.4,2.4-1.2,3-2.5s0.8-2.6,0.3-3.9
						l-1.9-5.7c-0.4-1.3,0.3-2.7,1.6-3.2c1.3-0.4,2.7,0.3,3.2,1.6l1.9,5.7c0.9,2.6,0.7,5.4-0.6,7.8s-3.5,4.2-6.1,5
						C395.1,277.9,394.2,278,393.2,278z"/>
				</g>
			</g>
			<g>
				<path class="st23" d="M242.9,351.5c0,0,12.6-9.4,14-12.5c1.4-3.1,7.1-14.5,8.6-15.7c0,0,3.1-0.4,3.6,1.7
					c0.5,2.1-3,14.6-5.4,18.4s-13.9,16.6-17.6,18.4L242.9,351.5z"/>
			</g>
			<g>
				<path class="st23" d="M206.2,395.7c0,0,1.2,4.6,0,6.6c-1.2,1.9-3.9,3.3-4.4,2.9s-0.2-3.4,0.4-4.7c0.6-1.3-0.9-3,0.4-4.8
					C203.9,393.8,206.2,395.7,206.2,395.7z"/>
			</g>
			<g>
				<path class="st1" d="M243.5,335c0,0,2.8,0,2.6,2.5c0,0,1,0.3,0.9,2.1c-0.1,1.8-1.7,2-1.7,2s2-0.3,2.6,1.2c0,0,3.2-0.6,3.8,1.6
					c0.6,2.2-4.1,6.6-4.1,6.6l-7.8,1.5l-3.8-2.7l-0.3-8.1L243.5,335z"/>
			</g>
			<g>
				<path class="st17" d="M241.2,360.6l-15.1-8.9c0.1,0,0.4-0.5,1.5-3.6c0.5-1.4,0.7-2.5,0.9-3.5c0-0.1,0-0.2,0-0.3
					c0.1-1.4,0-2.1,0-2.1l3.3,1.2l6.1,2.1c-0.1,1.5,0.1,2.6,0.5,3.3c0.8,1.8,2.3,1.8,2.3,1.8L241.2,360.6z"/>
			</g>
			<g>
				<path class="st23" d="M238.4,348.8c-5.9,0.5-9.2-3.3-10-4.2c-0.1-0.1-0.2-0.2-0.2-0.2s0.1,0,0.2-0.1c0.5-0.1,1.8-0.5,3.4-1
					l6.1,2.1C237.9,347,238.1,348.1,238.4,348.8z"/>
			</g>
			<g>
				<path class="st17" d="M238.7,346.8c0,0-13.1,1.4-13.4-7.2s-2.2-12.6,6.9-13.3s11.2,2.4,11.8,5.3
					C245.6,340.6,242.4,346.4,238.7,346.8z"/>
			</g>
			<g>
				<path class="st1" d="M232.9,330.4c-4.6-1.1,0,4-2.3,5.6c-2.4,1.8-5.3,0.1-5,1.6s0.9,2.1,1.1,3s0,2.9-1.1,2.5
					c-1.1-0.4-11.1-11.5-4-20.2s28.3-3.3,21.6,5.8C242.1,330.3,236.2,331.2,232.9,330.4z"/>
			</g>
			<g>
				<path class="st1" d="M228.3,337.3c0,0,2.4,0.6,3.1,2.4c0,0,2-0.2,2,2.5c0,0,0.2,1.3-0.6,2c0,0,2.1,2.9-0.2,4.6
					C230.3,350.5,228.3,337.3,228.3,337.3z"/>
			</g>
			<g>
				<path class="st24" d="M265.4,447.8c0.1-3.4-2.5-4.2-4.2-4.2c-0.8,0-2.1-0.8-3.3-1.7l-3.6-15.9c-5.6-0.2-15.1,4.2-15.1,4.2
					l8.7,16.1l0,0c0,0.9,0.1,1.5,0.1,1.5L265.4,447.8L265.4,447.8z"/>
			</g>
			<g>
				<path class="st24" d="M215.3,422.9l-10,19l0,0c-0.4,0.8-0.7,1.5-0.5,1.8c0.8,1.2,6.8,4.1,6.8,4.1h8.7c0-2.3-2.3-3.5-3.6-4
					c-0.6-0.2-0.9-1.3-1-2.3l0,0l11.4-12.4C227.1,429.1,215.7,423,215.3,422.9z"/>
			</g>
			<g>
				<path class="st25" d="M251.7,379.1c3.2,15.7,8,40.7,8.9,53.4c0,0-3.9,1.1-10.4,2c-4.9,0.7-11.2,1.3-18.5,1.3
					c-13.2,0-21.4-3.3-27.6-8.5c0,0,1.1-3.3,2.8-8c3.7-10.7,9.8-28.5,10-29.2c0.1-0.5,0.6-2.4,1.3-5c-6.4,4.3-9.8,15.5-9.8,15.5
					c-5-0.1-11.7-3.9-11.7-3.9s3.4-13.9,11.7-27.5c7.7-12.6,16.4-15.3,17.6-15.6c0,0,0-0.1,0-0.1c-0.8-0.4-1.5-1-2.3-1.6
					c0,0-13.3-15.9-15.2-22.7c-0.1-0.5-0.2-1.1-0.1-1.6l0,0c1-6.3,17.1-12.5,25.8-8.9c0,0-4.6,8.1-4.8,17.5
					c-0.1,5.8,1.5,12.1,7,17.3l0,0c3.6-1.5,3.1-3.2,3.1-3.2s8.5-3.8,12.3-7.9c4.4-4.8,10.1-13.2,10.1-13.2s7.3,5.8,7.3,6.7
					c-0.6,9.7-5.9,17.2-11,22.1C252.6,363.4,250.2,371.4,251.7,379.1z"/>
			</g>
			<g>
				<path class="st26" d="M324.1,175.5c0,0-13.1-2-19.5,6.3c-6.4,8.3-0.2,19.7-10.8,21.3c-6.2,0.9-9.7,7.8-3.9,16.2
					c3.6,5.2-14,11,0.1,22.4c16.3,13.1,22.6-15.6,32-12.3s22.7-6.2,18-12c-7.8-9.6,2.9-5.2,2.2-18.4
					C341.7,185.8,333.1,175.2,324.1,175.5z"/>
			</g>
			<g>
				<path class="st14" d="M276,426.8c0,0-4.9,4.4-3.9,7.6c1,3.1,5.3,5.2,5.9,9.1c0.6,3.9,3,6,5.1,6s10.2,0,10.2,0s1.6-2.7-2.2-3.5
					s-5.2-5.3-5-9.5s-0.4-9.8-0.4-9.8l-8.1-1.9L276,426.8z"/>
			</g>
			<g>
				<path class="st14" d="M317.1,429c0,0-1.8,18.8,0.4,19.8l27.3-0.1c0,0,0-3.1-4.4-3.9s-12.1-3.3-13.4-9
					C325.8,430.3,317.1,429,317.1,429z"/>
			</g>
			<g>
				<path class="st1" d="M339.4,274.6c0,0,7.9,24.5,8.4,32.8c0.5,8.3-21.3,122.2-22,126.1c-0.6,3.6-9.2,0-9.2,0s-6.1-78.5-2.3-106.6
					c3.8-28.1,3.8-52.3,3.8-52.3L339.4,274.6L339.4,274.6z"/>
			</g>
			<g>
				<path class="st24" d="M306.1,273.8c0,0-12,16.1-13.1,27c-1.1,10.9,3.3,46,0.9,56.7c-2.4,10.6-16.2,34.1-16.2,67.2
					c0,0,7,4,8.1,1.9c5.9-11.9,29.5-51.2,30.4-59.1c0.7-5.6,6.6-43,19.6-65c3.1-5.3-1.9-26.2-1.9-26.2L306.1,273.8z"/>
			</g>
			<g>
				<path class="st17" d="M226,351.7L226,351.7C226,351.7,226,351.7,226,351.7z"/>
			</g>
			<g>
				<path class="st27" d="M214.2,317.5c-0.2-0.4-0.3-0.7-0.3-0.7C214,317,214.1,317.2,214.2,317.5z"/>
			</g>
			<g>
				<path class="st23" d="M273.6,317.5c-0.2,1.1-0.7,2.3-1.2,2.9c-0.7,0.8-1.8,2.4-2.5,3.5c-0.5,0.6-0.8,1.1-0.8,1.1l-3.6-1.7
					c0,0-0.1-5.9,2.3-7.1c0.1,0,0.1-0.1,0.2-0.1c1-0.5,2-0.9,2.8-1.1c1.1-0.3,2-0.3,2.5,0C273.8,315.2,273.9,316.3,273.6,317.5z"/>
			</g>
			<g>
				<path class="st17" d="M340.8,290.1c-8.2-26.1,0.8-31.7-0.1-44.8c-0.9-13.1-11-27.1-11-27.1s-0.4,0-1-0.1c-0.3,0-0.6-0.2-0.7-0.5
					c-0.4-1-0.5-3.3-0.5-5.7c0-3.6,0.3-7.4,0.3-7.4l-12.1-2.4l-0.7-0.1c0,8.4-2.2,14-3.8,15.3c-1.5,0.2-4.2,2.4-8.2,4
					c-1.5,0.6-3.8,1.7-4.2,2.6c-3.3,7.3-9.2,24.1-11.6,37.3c-1.3,7.3-2.3,13-2.8,14.2c-1.4,3.4-5.9,21.9-9.6,31l3.4,4.2
					c0,0,17.3-29.1,18.7-36c0.5-2.2,1.6-6.7,3-11.7c0.2-0.8,0.4-1.5,0.6-2.3c2.4,6.5,3.6,9.4,3.5,12.2c-0.1,4-2.8,7.5-8.4,20.1
					C292.5,299.9,349.1,316.7,340.8,290.1z"/>
			</g>
			<g>
				<path class="st28" d="M327.8,206.4c0,0-0.3,2.2-0.3,5.8c-6.8-0.2-10.4-4.8-11.8-8.2L327.8,206.4z"/>
			</g>
			<g>
				<path class="st26" d="M314.4,202.7c0,0-3.5-5.6-4.4-10.4c-0.6-3.4,1.1-16.1,13.9-14.3c0,0,3.7,0.4,7.2,2.7
					c2.8,1.9,6.8,5.9,2.3,17l-1.2,3.7L314.4,202.7z"/>
			</g>
			<g>
				<path class="st17" d="M330.1,209.8c0,0-16,0.3-16-9.7c0-10-2.1-16.7,8.1-17.3s12.2,3.2,13,6.6
					C336,192.7,334.2,209.5,330.1,209.8z"/>
			</g>
			<g class="st29">
				<path class="st30" d="M251.7,379.1c3.2,15.7,8,40.7,8.9,53.4c0,0-3.9,1.1-10.4,2c0,0-10.2-34.6-7.8-47.2
					c2.4-12.6,9.8-17.5,6-22.2s14.8-12,9.8-7.1C252.6,363.4,250.2,371.4,251.7,379.1z"/>
			</g>
			<g>
				<path class="st26" d="M334.7,183.8c-2.5-3-4.4-2.4-5.4-1.4c-8.6-4.8-14.4,2.3-14.4,2.3c-1.1,7.2-6.2,11.3-6.2,11.3
					s2.9,1.8,9.7,0.1c2.1-0.5,3.9-2,5.5-3.8c-2.7,4.6-6.4,7.9-6.4,7.9c8-3.7,11.3-14.9,11.6-16.1c1,0.9,2.9,2.8,3.5,4.7
					c0.8,2.5,1.2,7.8,2.7,7.6C335.1,196.3,338.5,188.3,334.7,183.8z"/>
			</g>
			<g>
				<path class="st17" d="M275.1,305.5c0,0-1.5,3.5-3,4.4c-1.5,1-2.5,3-2.1,4.8c0.4,1.9-0.4,5,1.5,5c1.9,0,6.4-8.5,7-10.1
					c0.6-1.6,1-1.9,1-1.9L275.1,305.5z"/>
			</g>
			<g>
				<path class="st13" d="M348.9,334.3c-1.7,12.7-61,2.8-62.9-3c-1.6-5,0.1-11,2.1-20.2l0,0c0.7-3.1,1.4-6.7,2-10.6
					c-1.8,0.5-8.6,3.5-15.2-0.3c2.7-13.5,15.1-63,21.4-76c3-6.3,14.9-7,14.9-7s3.3,3.7,5,4.8c6.6,4.2,10.6,3.6,12.2,1.2
					c1.3-2,0.8-4.3,0.4-5.1c0,0,1,0.1,1,0.1c2.4,0.3,4.1,0.6,5.3,0.8c2.4,0.4,3,0.7,3.6,1.2c2.1,2.1,4.8,7.4,5,16.9
					c0.1,3.5-0.2,7.6-0.9,12.3C343,262.7,350.8,320.4,348.9,334.3z"/>
			</g>
			<g>
				<path class="st31" d="M325.5,203.9c0,0,0.3,1.2,3.4,1c0,0,2.6-0.2,2.5-1.5C331.3,203.4,328.8,202.4,325.5,203.9z"/>
			</g>
			<g>
				<path class="st17" d="M277.9,308.9c0,0,0.9,3.8,0.2,5c-0.6,1.2-0.2,2.8-1.5,2.3C275.3,315.8,277.9,308.9,277.9,308.9z"/>
			</g>
			<g>
				<path class="st14" d="M327.5,437.3l7.7-43.8c0,0-4.5-3.3-23.9,0l5.4,53L327.5,437.3z"/>
			</g>
			<g>
				<path class="st14" d="M286.2,434.3l18.9-39.5c0,0-6.7-9.8-22.8-10.4c0,0-4.6,20.3-4.6,30.3s-4.4,15.4-4.4,15.4L286.2,434.3z"/>
			</g>
			<g>
				<path class="st26" d="M325.8,250c0-0.7,0.6-1.3,1.3-1.3s1.3,0.6,1.3,1.3s-0.6,1.3-1.3,1.3S325.8,250.7,325.8,250z"/>
			</g>
			<g>
				<path class="st26" d="M326.5,275c0-0.7,0.6-1.3,1.3-1.3c0.7,0,1.3,0.6,1.3,1.3c0,0.7-0.6,1.3-1.3,1.3
					C327.1,276.2,326.5,275.7,326.5,275z"/>
			</g>
			<g>
				<path class="st26" d="M326.6,303.6c0-0.7,0.6-1.3,1.3-1.3c0.7,0,1.3,0.6,1.3,1.3c0,0.7-0.6,1.3-1.3,1.3S326.6,304.3,326.6,303.6
					z"/>
			</g>
			<g class="st29">
				<path class="st30" d="M217.1,401.8c0.2,5.5-10.3,17.4-10.3,17.4c3.7-10.7,9.8-28.5,10-29.2c0.1-0.5,0.6-2.4,1.3-5v0
					c0,0,3.2-3.3,4.5-1.2C224,385.8,216.9,396.2,217.1,401.8z"/>
			</g>
			<g>
				<path class="st24" d="M241.2,368c0-0.7,0.6-1.2,1.2-1.2s1.2,0.6,1.2,1.2s-0.6,1.2-1.2,1.2C241.7,369.3,241.2,368.7,241.2,368z"
					/>
			</g>
			<g>
				<path class="st24" d="M241.2,387.2c0-0.7,0.6-1.2,1.2-1.2s1.2,0.6,1.2,1.2s-0.6,1.2-1.2,1.2
					C241.7,388.4,241.2,387.9,241.2,387.2z"/>
			</g>
			<g>
				<circle class="st24" cx="244.4" cy="411.8" r="1.2"/>
			</g>
			<g class="st29">
				<path class="st30" d="M231.9,354c-1.5,0-3.4-0.2-5.9-0.7c-0.8-0.4-1.5-1-2.3-1.6c0,0-13.3-15.9-15.2-22.7
					c-0.1-0.5-0.2-1.1-0.1-1.6c0.1,0.2,5.5,8.3,21,8.6c-0.1,3.8,0.7,10,2.8,13.8C233.2,351.8,234,354.1,231.9,354z"/>
			</g>
			<g>
				<path class="st13" d="M379.8,277.6c0,0-3.5,1.5-10.3,3c-2.6,0.6-5.6,1.2-9.1,1.7c-6,0.9-11.4-3.2-15.4-7.7c0,0,0,0,0,0
					c-4.4-5-7.2-10.6-7.2-10.6v-44.2c0,0,7.1,2.6,11.4,9.6c4.3,6.9,8.8,30.9,10.9,31.4c2.1,0.5,18.8-2.3,18.8-2.3
					S384.1,264,379.8,277.6z"/>
			</g>
			<g>
				<path class="st17" d="M386.6,257.6c0,0-1.6-0.7-2.5,1.2c-0.9,1.9-0.4,3.1,0.9,3.6s2.2-0.2,2.2-0.2L386.6,257.6z"/>
			</g>
			<g>
				<path class="st11" d="M369.5,280.6c-2.6,0.6-5.6,1.2-9.1,1.7c-6,0.9-11.4-3.2-15.4-7.7c0,0,0,0,0,0s-2-22.7,0-24.5
					c2-1.8,3.5,21.3,8.7,24.5C358.9,277.8,368.9,275.1,369.5,280.6z"/>
			</g>
			<g>
				<path class="st11" d="M301.5,291.7c-4.1,6.7-3.5,16.6-13.5,19.4c0.7-3.1,1.4-6.7,2-10.6c0,0,9.9-28.7,10.2-34.3
					c0.3-5.6,3.2-4.3,3.5-1.4C304.1,267.6,305.7,285,301.5,291.7z"/>
			</g>
			<g>
				<path class="st32" d="M324.6,225.1c0,0-9.8-7.4-10.4-14.9c0,0-8,0.1-8,7.8C306.1,218,315.5,227.6,324.6,225.1z"/>
			</g>
			<g>
				<path class="st32" d="M324.6,225.1c0,0,3-8.4,2.9-12.2c0,0,4.7,2,5,5.7C332.5,218.6,332.4,225.5,324.6,225.1z"/>
			</g>
			<g>
				<path class="st26" d="M323.3,225.1c0-0.7,0.6-1.3,1.3-1.3c0.7,0,1.3,0.6,1.3,1.3s-0.6,1.3-1.3,1.3S323.3,225.8,323.3,225.1z"/>
			</g>
		</g>
		<g>
			<g>
				<g>
					<path class="st33" d="M486.5,258.3c1-2.4,8.2-7.7,8.2-7.7s1.3,8.9,0.3,11.3c-1,2.4-3.7,3.5-6,2.5
						C486.6,263.3,485.5,260.6,486.5,258.3z"/>
				</g>
				<g>
					<path class="st33" d="M545,194.3c1-2.4,8.2-7.7,8.2-7.7s1.3,8.9,0.3,11.2s-3.7,3.4-6,2.5C545.2,199.3,544,196.6,545,194.3z"/>
				</g>
				<g>
					<path class="st33" d="M455.5,224.5c1-2.4,8.2-7.7,8.2-7.7s1.3,8.9,0.3,11.2s-3.7,3.4-6,2.5
						C455.6,229.5,454.5,226.8,455.5,224.5z"/>
				</g>
				<g>
					<path class="st33" d="M212.8,106.8c1-2.3,8.2-7.7,8.2-7.7s1.3,8.9,0.3,11.2c-1,2.3-3.7,3.4-6.1,2.5S211.8,109.2,212.8,106.8z"
						/>
				</g>
				<g>
					<path class="st33" d="M408.2,246.9c1-2.4,8.2-7.7,8.2-7.7s1.3,8.9,0.3,11.2c-1,2.4-3.7,3.4-6,2.5
						C408.3,252,407.2,249.3,408.2,246.9z"/>
				</g>
				<g>
					<path class="st33" d="M527.4,227c1-2.4,8.2-7.7,8.2-7.7s1.3,8.9,0.3,11.2s-3.7,3.4-6,2.5C527.5,232.1,526.5,229.4,527.4,227z"
						/>
				</g>
			</g>
			<g>
				<g>
					<path class="st33" d="M403.1,357.6c1-2.4,8.2-7.7,8.2-7.7s1.3,8.9,0.3,11.2c-1,2.4-3.7,3.5-6,2.5
						C403.3,362.7,402.2,360,403.1,357.6z"/>
				</g>
				<g>
					<path class="st33" d="M399.7,323.9c1-2.4,8.2-7.7,8.2-7.7s1.3,8.9,0.3,11.2c-1,2.4-3.7,3.5-6,2.5
						C399.8,328.9,398.7,326.2,399.7,323.9z"/>
				</g>
				<g>
					<path class="st33" d="M426.8,349.2c1-2.4,8.2-7.7,8.2-7.7s1.3,8.9,0.3,11.2c-1,2.4-3.7,3.5-6,2.5
						C427,354.3,425.9,351.6,426.8,349.2z"/>
				</g>
				<g>
					<path class="st33" d="M481.8,334c1-2.4,8.2-7.7,8.2-7.7s1.3,8.9,0.3,11.2c-1,2.4-3.7,3.5-6,2.5S480.8,336.4,481.8,334z"/>
				</g>
				<g>
					<path class="st33" d="M501.5,353.7c1-2.4,8.2-7.7,8.2-7.7s1.3,8.9,0.3,11.2c-1,2.4-3.7,3.5-6,2.5
						C501.6,358.8,500.5,356,501.5,353.7z"/>
				</g>
			</g>
			<g>
				<g>
					<path class="st33" d="M313.2,117.3c1-2.3,8.2-7.7,8.2-7.7s1.3,8.9,0.3,11.2c-1,2.3-3.7,3.4-6,2.5
						C313.3,122.4,312.2,119.7,313.2,117.3z"/>
				</g>
				<g>
					<path class="st33" d="M407.8,113.8c1-2.3,8.2-7.7,8.2-7.7s1.3,8.9,0.3,11.2c-1,2.3-3.7,3.4-6,2.5
						C407.9,118.9,406.8,116.2,407.8,113.8z"/>
				</g>
				<g>
					<path class="st33" d="M353.9,67c1-2.3,8.2-7.7,8.2-7.7s1.3,8.9,0.3,11.2c-1,2.3-3.7,3.4-6,2.5C354,72,352.9,69.3,353.9,67z"/>
				</g>
				<g>
					<path class="st33" d="M360,94.1c1-2.3,8.2-7.7,8.2-7.7s1.3,8.9,0.3,11.2c-1,2.3-3.7,3.4-6,2.5C360.1,99.1,359,96.4,360,94.1z"
						/>
				</g>
			</g>
			<g>
				<g>
					<path class="st33" d="M509.3,161.5c1-2.4,8.2-7.7,8.2-7.7s1.3,8.9,0.3,11.2s-3.7,3.4-6,2.5
						C509.4,166.6,508.3,163.9,509.3,161.5z"/>
				</g>
				<g>
					<path class="st33" d="M542.3,107.6c1-2.3,8.2-7.7,8.2-7.7s1.3,8.9,0.3,11.2s-3.7,3.4-6,2.5C542.4,112.7,541.3,110,542.3,107.6z
						"/>
				</g>
				<g>
					<path class="st33" d="M547.8,137.4c1-2.4,8.2-7.7,8.2-7.7s1.3,8.9,0.3,11.2s-3.7,3.4-6,2.5
						C547.9,142.5,546.8,139.8,547.8,137.4z"/>
				</g>
			</g>
			<g>
				<g>
					<path class="st33" d="M256,234.1c1-2.4,8.2-7.7,8.2-7.7s1.3,8.9,0.3,11.2c-1,2.4-3.7,3.4-6,2.5S255,236.4,256,234.1z"/>
				</g>
				<g>
					<path class="st33" d="M257.8,162.3c1-2.4,8.2-7.7,8.2-7.7s1.3,8.9,0.3,11.2c-1,2.4-3.7,3.4-6,2.5
						C257.9,167.4,256.8,164.6,257.8,162.3z"/>
				</g>
				<g>
					<path class="st33" d="M377.2,162.9c1-2.4,8.2-7.7,8.2-7.7s1.3,8.9,0.3,11.2c-1,2.4-3.7,3.4-6,2.5
						C377.3,168,376.2,165.3,377.2,162.9z"/>
				</g>
			</g>
			<g>
				<g>
					<path class="st33" d="M170.9,297c1-2.4,8.2-7.7,8.2-7.7s1.3,8.9,0.3,11.2c-1,2.4-3.7,3.5-6.1,2.5
						C171,302.1,169.9,299.4,170.9,297z"/>
				</g>
				<g>
					<path class="st33" d="M161.6,238.9c1-2.4,8.2-7.7,8.2-7.7s1.3,8.9,0.3,11.2c-1,2.4-3.7,3.4-6.1,2.5
						C161.8,244,160.6,241.3,161.6,238.9z"/>
				</g>
				<g>
					<path class="st33" d="M179.2,260.9c1-2.4,8.2-7.7,8.2-7.7s1.3,8.9,0.3,11.3c-1,2.4-3.7,3.5-6.1,2.5
						C179.3,265.9,178.2,263.2,179.2,260.9z"/>
				</g>
			</g>
			<g>
				<g>
					<path class="st33" d="M161.6,349.6c1-2.4,8.2-7.7,8.2-7.7s1.3,8.9,0.3,11.2c-1,2.4-3.7,3.5-6.1,2.5
						C161.8,354.6,160.6,351.9,161.6,349.6z"/>
				</g>
				<g>
					<path class="st33" d="M138,293.1c1-2.4,8.2-7.7,8.2-7.7s1.3,8.9,0.3,11.2c-1,2.4-3.7,3.5-6.1,2.5
						C138.1,298.1,137,295.4,138,293.1z"/>
				</g>
				<g>
					<path class="st33" d="M179.2,314.8c1-2.4,8.2-7.7,8.2-7.7s1.3,8.9,0.3,11.2c-1,2.4-3.7,3.5-6.1,2.5
						C179.3,319.8,178.2,317.1,179.2,314.8z"/>
				</g>
			</g>
		</g>
	</g>
</g>
</svg>
